<?xml version="1.0" encoding="UTF-8"?>
<svg width="406px" height="501px" viewBox="0 0 406 501" version="1.1" xmlns="http://www.w3.org/2000/svg" xmlns:xlink="http://www.w3.org/1999/xlink">
    <title>Group</title>
    <defs>
        <filter color-interpolation-filters="auto" id="filter-1">
            <feColorMatrix in="SourceGraphic" type="matrix" values="0 0 0 0 0.419608 0 0 0 0 0.917647 0 0 0 0 0.788235 0 0 0 1.000000 0"></feColorMatrix>
        </filter>
    </defs>
    <g id="Symbols" stroke="none" stroke-width="1" fill="none" fill-rule="evenodd">
        <g id="pattern" transform="translate(-1103.000000, -371.000000)" filter="url(#filter-1)">
            <g transform="translate(1103.979893, 371.757050)">
                <g id="Group" transform="translate(0.000000, -0.000000)" fill="#58C6AA">
                    <g id="pole-group" transform="translate(139.249330, 67.091106)">
                        <rect id="Rectangle" x="2.82037534" y="4.22993492" width="22.5630027" height="84.5986985" rx="11.2815013"></rect>
                        <path d="M42.9928455,-12.5869605 C49.1280085,-12.5843791 54.1008957,-7.61149069 54.1034754,-1.47632762 L54.1298924,61.3484478 C54.1324694,67.4769426 49.1664318,72.4471582 43.0379371,72.4497351 C43.0348255,72.4497365 43.0317139,72.4497365 43.0286023,72.4497351 C36.8934392,72.4471538 31.920552,67.4742654 31.9179723,61.3391023 L31.8915553,-1.48567315 C31.8889783,-7.61416788 36.8550159,-12.5843835 42.9835106,-12.5869605 C42.9866222,-12.5869618 42.9897339,-12.5869618 42.9928455,-12.5869605 Z" id="Rectangle" transform="translate(43.010724, 29.931387) rotate(117.000000) translate(-43.010724, -29.931387) "></path>
                    </g>
                    <g id="pole-group" transform="translate(0.000000, 410.796095)">
                        <rect id="Rectangle" x="2.82037534" y="4.22993492" width="22.5630027" height="84.5986985" rx="11.2815013"></rect>
                        <path d="M42.9928455,-12.5869605 C49.1280085,-12.5843791 54.1008957,-7.61149069 54.1034754,-1.47632762 L54.1298924,61.3484478 C54.1324694,67.4769426 49.1664318,72.4471582 43.0379371,72.4497351 C43.0348255,72.4497365 43.0317139,72.4497365 43.0286023,72.4497351 C36.8934392,72.4471538 31.920552,67.4742654 31.9179723,61.3391023 L31.8915553,-1.48567315 C31.8889783,-7.61416788 36.8550159,-12.5843835 42.9835106,-12.5869605 C42.9866222,-12.5869618 42.9897339,-12.5869618 42.9928455,-12.5869605 Z" id="Rectangle" transform="translate(43.010724, 29.931387) rotate(117.000000) translate(-43.010724, -29.931387) "></path>
                    </g>
                    <g id="pole-group" transform="translate(319.000000, 0.000000)">
                        <rect id="Rectangle" x="2.82037534" y="0" width="22.5630027" height="84.5986985" rx="11.2815013"></rect>
                        <path d="M42.9462741,46.0932869 C49.072169,46.1025983 54.0358619,51.0663079 54.0451528,57.1922028 L54.140437,120.017298 C54.1496915,126.119199 49.2106254,131.073269 43.1087241,131.082524 C43.0975407,131.082541 43.0863571,131.082541 43.0751736,131.082524 C36.9492787,131.073212 31.9855858,126.109503 31.9762949,119.983608 L31.8810107,57.1585132 C31.8717562,51.0566119 36.8108223,46.1025413 42.9127236,46.0932869 C42.9239071,46.0932699 42.9350906,46.0932699 42.9462741,46.0932869 Z" id="Rectangle" transform="translate(43.010724, 88.587905) rotate(117.000000) translate(-43.010724, -88.587905) "></path>
                    </g>
                    <g id="pole-group" transform="translate(145.608579, 263.848156)">
                        <path d="M31.3793791,0.434968192 C37.5077367,0.443208964 42.4736942,5.40917682 42.4819222,11.5375344 L42.5662396,74.3386382 C42.5744391,80.4457481 37.6302953,85.4031859 31.5231853,85.4113854 C31.51328,85.4113987 31.5033747,85.4113987 31.4934693,85.4113853 C25.3651118,85.4031446 20.3991543,80.4371767 20.3909263,74.3088191 L20.3066089,11.5077154 C20.2984094,5.40060542 25.2425532,0.44316763 31.3496632,0.434968161 C31.3595685,0.434954862 31.3694738,0.434954872 31.3793791,0.434968192 Z" id="Rectangle" transform="translate(31.436424, 42.923177) rotate(30.000000) translate(-31.436424, -42.923177) "></path>
                        <path d="M66.1757086,0.434968192 C72.2828185,0.426755992 77.2402666,5.37088948 77.2484788,11.4779994 C77.2484922,11.4879047 77.2484922,11.4978101 77.2484789,11.5077154 L77.1641615,74.3088191 C77.1559335,80.4371767 72.189976,85.4031446 66.0616184,85.4113853 C59.9545085,85.4195975 54.9970604,80.4754641 54.9888482,74.3683541 C54.9888348,74.3584488 54.9888348,74.3485435 54.9888481,74.3386382 L55.0731655,11.5375344 C55.0813935,5.40917682 60.047351,0.443208964 66.1757086,0.434968192 Z" id="Rectangle" transform="translate(66.118664, 42.923177) rotate(-30.000000) translate(-66.118664, -42.923177) "></path>
                        <path d="M49.3565684,29.6032637 C55.5862445,29.6032637 60.6363948,34.653414 60.6363948,40.8830901 L60.6363948,102.934697 C60.6363948,109.164373 55.5862445,114.214524 49.3565684,114.214524 C43.1268922,114.214524 38.0767419,109.164373 38.0767419,102.934697 L38.0767419,40.8830901 C38.0767419,34.653414 43.1268922,29.6032637 49.3565684,29.6032637 Z" id="Rectangle" transform="translate(49.356568, 71.908894) rotate(-270.000000) translate(-49.356568, -71.908894) "></path>
                    </g>
                </g>
            </g>
        </g>
    </g>
</svg>