<?xml version="1.0" standalone="no"?>
<!DOCTYPE svg PUBLIC "-//W3C//DTD SVG 20010904//EN"
 "http://www.w3.org/TR/2001/REC-SVG-20010904/DTD/svg10.dtd">
<svg version="1.0" xmlns="http://www.w3.org/2000/svg"
 width="700.000000pt" height="700.000000pt" viewBox="0 0 700.000000 700.000000"
 preserveAspectRatio="xMidYMid meet">
<metadata>
Created by potrace 1.14, written by Peter Selinger 2001-2017
</metadata>
<g transform="translate(0.000000,700.000000) scale(0.100000,-0.100000)"
fill="#000000" stroke="none">
<path d="M3437 6989 c-66 -7 -158 -21 -287 -44 -14 -3 -74 -18 -135 -35 -60
-17 -117 -32 -125 -34 -51 -13 -274 -108 -384 -164 -512 -262 -937 -708 -1169
-1226 -45 -99 -154 -391 -146 -391 1 0 -8 -43 -19 -95 -24 -105 -30 -136 -38
-195 -3 -22 -7 -51 -10 -65 -2 -14 -7 -56 -11 -95 -8 -82 -10 -3911 -1 -3970
16 -120 81 -270 158 -370 116 -150 319 -271 495 -293 66 -9 228 -8 284 2 124
21 308 115 397 202 126 124 217 299 240 464 2 14 4 323 5 688 1 612 2 663 18
656 93 -39 330 -116 399 -129 274 -52 348 -60 582 -60 246 1 403 19 615 71 55
14 107 27 115 29 92 23 304 108 435 175 660 337 1127 912 1330 1635 10 33 19
71 21 85 3 14 7 33 10 43 3 10 7 32 10 50 2 18 6 43 9 57 10 48 13 65 20 130
3 36 8 81 11 100 7 54 6 348 -1 415 -12 114 -15 140 -20 165 -2 14 -7 42 -10
62 -38 269 -187 666 -346 920 -261 417 -633 754 -1063 963 -207 101 -422 175
-607 210 -13 3 -35 7 -49 10 -46 10 -65 13 -120 20 -30 3 -68 9 -85 11 -56 9
-450 11 -528 3z"/>
</g>
</svg>
